<?xml version="1.0" encoding="UTF-8"?>
<svg xmlns="http://www.w3.org/2000/svg" xmlns:xlink="http://www.w3.org/1999/xlink" width="300px" height="124px" viewBox="0 0 300 124" version="1.1">
<g id="surface1">
<path style=" stroke:none;fill-rule:nonzero;fill:rgb(43.529412%,47.45098%,62.745098%);fill-opacity:1;" d="M 237.988281 9.554688 C 244.789062 5.582031 252.890625 4.484375 260.503906 6.511719 C 268.109375 8.535156 274.601562 13.519531 278.546875 20.351562 C 281.984375 26.5625 283.128906 33.222656 282.210938 39.652344 C 281.984375 35.058594 280.832031 30.003906 278.089844 25.640625 C 270.066406 11.394531 251.738281 6.570312 237.761719 14.84375 C 229.738281 19.4375 224.699219 27.476562 223.320312 35.980469 C 223.089844 25.640625 228.363281 15.074219 237.988281 9.554688 Z M 224.234375 44.484375 C 224.21875 36.617188 227.324219 29.066406 232.871094 23.503906 C 238.421875 17.941406 245.949219 14.820312 253.796875 14.84375 C 260.898438 14.84375 267.3125 17.136719 272.363281 21.273438 C 268.015625 18.851562 263.125 17.589844 258.152344 17.601562 C 241.878906 17.601562 228.59375 30.925781 228.59375 47.46875 C 228.59375 56.664062 232.945312 65.164062 239.816406 70.445312 C 230.65625 65.390625 224.234375 55.742188 224.234375 44.484375 Z M 247.386719 73.894531 C 233.402344 65.621094 228.363281 47.46875 236.609375 33.222656 C 240.28125 27.246094 245.546875 22.878906 251.503906 20.585938 C 247.613281 23.113281 243.945312 26.5625 241.425781 30.925781 C 237.464844 37.75 236.371094 45.871094 238.390625 53.503906 C 240.414062 61.136719 245.378906 67.648438 252.191406 71.597656 C 260.035156 76.066406 269.464844 76.742188 277.855469 73.4375 C 268.921875 78.949219 257.234375 79.414062 247.386719 73.894531 Z M 284.5 68.375 C 270.519531 76.421875 252.417969 71.59375 244.171875 57.34375 C 240.5 51.371094 239.585938 44.710938 240.5 38.042969 C 240.5 42.871094 241.875 47.695312 244.394531 52.292969 C 252.644531 66.304688 270.746094 71.363281 284.953125 63.089844 C 292.636719 58.472656 297.972656 50.777344 299.621094 41.949219 C 299.644531 52.835938 293.878906 62.902344 284.5 68.375 Z M 275.339844 4.035156 C 289.3125 12.082031 294.128906 30.230469 286.113281 44.476562 C 282.441406 50.679688 277.175781 54.820312 270.984375 57.34375 C 275.234375 54.726562 278.777344 51.097656 281.296875 46.777344 C 289.320312 32.765625 284.503906 14.609375 270.304688 6.339844 C 262.28125 1.507812 252.886719 1.28125 244.871094 4.269531 C 253.796875 -1.011719 265.480469 -1.703125 275.339844 4.035156 Z M 298.480469 33.453125 C 298.5 41.320312 295.390625 48.871094 289.847656 54.433594 C 284.296875 60 276.769531 63.117188 268.921875 63.09375 C 261.816406 63.09375 255.402344 60.800781 250.363281 56.664062 C 254.707031 59.082031 259.597656 60.347656 264.566406 60.335938 C 280.839844 60.335938 294.128906 47.011719 294.128906 30.460938 C 294.128906 21.042969 289.777344 12.773438 282.90625 7.253906 C 292.0625 12.316406 298.480469 22.195312 298.480469 33.453125 Z M 32.910156 76.878906 L 25.808594 76.878906 C 28.328125 79.632812 29.238281 81.476562 29.238281 84.460938 C 29.238281 87.214844 27.632812 90.664062 26.03125 92.273438 C 21.449219 97.105469 12.054688 94.570312 12.054688 98.710938 C 12.054688 100.78125 15.722656 101.925781 22.589844 103.296875 C 29.925781 104.679688 32.671875 108.585938 32.671875 112.949219 C 32.671875 119.839844 26.488281 123.980469 16.402344 123.980469 C 7.023438 123.988281 0.375 119.621094 0.375 113.414062 C 0.375 108.359375 3.121094 105.375 9.078125 103.761719 C 6.792969 102.382812 5.640625 101.003906 5.640625 99.398438 C 5.640625 97.328125 7.703125 95.265625 11.140625 94.570312 L 11.140625 94.339844 C 8.621094 93.191406 6.558594 91.8125 5.414062 89.972656 C 4.039062 88.140625 3.582031 86.070312 3.582031 83.542969 C 3.582031 76.191406 9.308594 71.59375 18.476562 71.59375 L 32.910156 71.59375 Z M 14.808594 107.902344 C 10 107.902344 6.792969 109.972656 6.792969 113.1875 C 6.792969 116.636719 10.222656 118.46875 16.414062 118.46875 C 22.605469 118.46875 26.039062 116.632812 26.039062 113.414062 C 26.039062 109.050781 18.933594 107.902344 14.808594 107.902344 Z M 16.410156 77.570312 C 12.746094 77.570312 9.535156 80.328125 9.535156 83.769531 C 9.535156 87.453125 12.511719 89.980469 16.640625 89.980469 C 20.300781 89.980469 23.289062 87.453125 23.289062 83.542969 C 23.289062 80.328125 20.082031 77.570312 16.410156 77.570312 Z M 65.445312 104.230469 C 62.238281 106.296875 60.863281 106.988281 58.800781 106.988281 C 55.816406 106.988281 54.214844 105.839844 53.527344 103.304688 C 50.542969 105.832031 47.34375 106.988281 44.136719 106.988281 C 39.09375 106.988281 35.652344 102.855469 35.652344 98.484375 C 35.652344 91.589844 42.070312 89.519531 47.574219 87.453125 L 53.535156 85.382812 L 53.535156 83.3125 C 53.535156 79.171875 51.472656 77.339844 47.347656 77.339844 C 43.683594 77.339844 39.792969 79.171875 36.351562 83.082031 L 36.351562 75.5 C 39.101562 72.285156 42.996094 70.902344 47.808594 70.902344 C 54.910156 70.902344 60.40625 74.351562 60.40625 82.160156 L 60.40625 100.082031 C 60.40625 101.460938 60.863281 101.925781 61.78125 101.925781 C 62.46875 101.925781 63.847656 101.238281 65.445312 100.082031 Z M 53.535156 89.0625 C 47.808594 91.132812 42.765625 92.964844 42.765625 97.105469 C 42.765625 100.089844 44.832031 101.933594 47.582031 101.933594 C 49.644531 101.933594 51.703125 101.011719 53.539062 99.171875 L 53.539062 89.0625 Z M 90.886719 80.554688 C 86.988281 78.027344 83.550781 76.878906 80.804688 76.878906 C 78.058594 76.878906 76.453125 78.261719 76.453125 80.09375 C 76.453125 81.476562 78.742188 83.3125 84.699219 86.992188 C 90.425781 90.667969 92.492188 93.195312 92.492188 96.644531 C 92.492188 102.855469 87.675781 106.988281 81.265625 106.988281 C 76.917969 106.988281 73.707031 106.0625 69.121094 103.769531 L 69.121094 96.414062 C 73.707031 99.40625 77.605469 100.785156 80.347656 100.785156 C 83.324219 100.785156 85.613281 99.40625 85.613281 96.878906 C 85.613281 92.050781 69.34375 89.519531 69.34375 80.335938 C 69.34375 74.359375 73.925781 70.914062 80.796875 70.914062 C 84.003906 70.914062 87.214844 71.839844 90.878906 73.675781 L 90.878906 80.554688 Z M 132.582031 88.597656 C 132.582031 99.398438 125.019531 106.980469 114.019531 106.980469 C 103.253906 106.980469 95.691406 99.167969 95.691406 88.597656 C 95.691406 78.492188 103.710938 70.902344 114.019531 70.902344 C 124.796875 70.902344 132.582031 78.261719 132.582031 88.597656 Z M 102.796875 88.597656 C 102.796875 95.949219 107.382812 100.78125 113.796875 100.78125 C 121.128906 100.78125 125.714844 96.183594 125.714844 88.597656 C 125.714844 81.933594 120.675781 77.105469 113.796875 77.105469 C 107.382812 77.113281 102.796875 81.941406 102.796875 88.597656 Z M 136.476562 106.296875 L 136.476562 60.792969 L 143.355469 60.792969 L 143.355469 106.296875 Z M 147.246094 106.296875 L 147.246094 71.59375 L 154.125 71.59375 L 154.125 106.296875 Z M 164.660156 76.191406 L 164.890625 76.191406 C 167.410156 72.746094 171.300781 70.902344 175.203125 70.902344 C 181.621094 70.902344 186.890625 75.273438 186.890625 84.691406 L 186.890625 106.296875 L 180.019531 106.296875 L 180.019531 84.691406 C 180.019531 79.640625 177.496094 76.421875 173.371094 76.421875 C 170.386719 76.421875 167.867188 77.800781 164.660156 81.25 L 164.660156 106.296875 L 157.785156 106.296875 L 157.785156 71.597656 L 164.660156 71.597656 Z M 221.257812 102.847656 C 217.128906 105.601562 213.242188 106.980469 207.507812 106.980469 C 196.734375 106.980469 190.78125 98.019531 190.78125 88.367188 C 190.78125 78.027344 197.199219 70.902344 206.820312 70.902344 C 215.988281 70.902344 221.949219 77.105469 221.949219 89.972656 L 197.429688 89.972656 C 198.570312 96.863281 202.46875 100.3125 209.109375 100.3125 C 213.234375 100.3125 217.125 98.710938 221.253906 96.183594 L 221.253906 102.847656 Z M 215.066406 85.382812 C 214.84375 80.09375 211.859375 76.878906 207.050781 76.878906 C 201.777344 76.878906 198.570312 79.871094 197.660156 85.382812 Z M 147.246094 67.691406 L 147.246094 60.792969 L 153.894531 60.792969 L 153.894531 67.691406 Z M 147.246094 67.691406 "/>
</g>
</svg>
